<svg width="754" height="265" viewBox="0 0 754 265" fill="none" xmlns="http://www.w3.org/2000/svg">
<path d="M112.644 14.0852H255.374L150.438 169.62H7.70825L112.644 14.0852Z" fill="#007AFF"/>
<path d="M118.894 184.034L78.2505 244.277H227.751L332.686 88.7422H222.346L158.054 184.034H118.894Z" fill="#A6C8FF"/>
<path d="M380.681 101.406H411.297C414.014 101.406 416.447 101.817 418.595 102.638C420.807 103.46 422.671 104.597 424.188 106.051C425.704 107.504 426.842 109.305 427.6 111.453C428.421 113.539 428.832 115.845 428.832 118.373C428.832 120.9 428.485 123.049 427.79 124.818C427.158 126.524 426.273 127.946 425.136 129.083C424.061 130.221 422.798 131.074 421.344 131.643C419.954 132.211 418.501 132.527 416.984 132.59V133.159C418.437 133.159 419.986 133.443 421.628 134.012C423.335 134.581 424.883 135.497 426.273 136.761C427.726 137.962 428.927 139.541 429.875 141.5C430.823 143.396 431.297 145.766 431.297 148.609C431.297 151.263 430.854 153.759 429.97 156.097C429.148 158.372 427.979 160.362 426.463 162.069C424.946 163.775 423.145 165.133 421.06 166.144C418.975 167.092 416.7 167.566 414.235 167.566H380.681V101.406ZM393.193 156.95H410.633C413.035 156.95 414.899 156.35 416.226 155.149C417.553 153.885 418.216 152.085 418.216 149.747V146.524C418.216 144.186 417.553 142.385 416.226 141.121C414.899 139.857 413.035 139.225 410.633 139.225H393.193V156.95ZM393.193 128.989H408.643C410.918 128.989 412.687 128.388 413.951 127.188C415.215 125.924 415.847 124.186 415.847 121.974V119.036C415.847 116.824 415.215 115.118 413.951 113.918C412.687 112.654 410.918 112.022 408.643 112.022H393.193V128.989ZM480.255 167.566C477.601 167.566 475.484 166.808 473.904 165.291C472.387 163.712 471.439 161.626 471.06 159.035H470.492C469.67 162.258 467.996 164.691 465.468 166.334C462.94 167.914 459.812 168.704 456.084 168.704C451.029 168.704 447.143 167.377 444.426 164.723C441.709 162.069 440.35 158.53 440.35 154.107C440.35 148.988 442.182 145.197 445.847 142.732C449.513 140.205 454.726 138.941 461.487 138.941H469.923V135.339C469.923 132.559 469.196 130.41 467.743 128.894C466.289 127.377 463.951 126.619 460.729 126.619C457.885 126.619 455.579 127.251 453.809 128.515C452.103 129.715 450.65 131.169 449.449 132.875L442.246 126.429C444.078 123.586 446.511 121.311 449.544 119.605C452.577 117.836 456.59 116.951 461.582 116.951C468.28 116.951 473.367 118.467 476.842 121.501C480.318 124.534 482.055 128.894 482.055 134.581V157.898H486.984V167.566H480.255ZM460.16 159.889C462.877 159.889 465.184 159.288 467.079 158.088C468.975 156.887 469.923 155.118 469.923 152.78V146.239H462.151C455.832 146.239 452.672 148.262 452.672 152.306V153.917C452.672 155.939 453.304 157.456 454.568 158.467C455.895 159.415 457.759 159.889 460.16 159.889ZM497.887 167.566V118.088H510.019V126.335H510.493C511.504 123.681 513.084 121.469 515.232 119.7C517.444 117.867 520.477 116.951 524.332 116.951C529.45 116.951 533.368 118.625 536.085 121.974C538.802 125.324 540.161 130.094 540.161 136.287V167.566H528.028V137.519C528.028 133.981 527.396 131.327 526.133 129.557C524.869 127.788 522.784 126.903 519.877 126.903C518.613 126.903 517.381 127.093 516.18 127.472C515.043 127.788 514 128.293 513.052 128.989C512.168 129.62 511.441 130.442 510.872 131.453C510.304 132.401 510.019 133.538 510.019 134.865V167.566H497.887ZM570.143 167.566C565.973 167.566 562.782 166.492 560.57 164.343C558.421 162.132 557.347 159.004 557.347 154.96V127.756H550.049V118.088H553.84C555.673 118.088 556.905 117.678 557.537 116.856C558.232 115.971 558.579 114.676 558.579 112.97V104.534H569.48V118.088H579.622V127.756H569.48V157.898H578.863V167.566H570.143ZM620.801 159.32H620.327C619.885 160.584 619.285 161.784 618.527 162.922C617.831 163.996 616.915 164.975 615.778 165.86C614.704 166.745 613.377 167.44 611.797 167.945C610.28 168.451 608.511 168.704 606.489 168.704C601.37 168.704 597.453 167.029 594.735 163.68C592.018 160.331 590.66 155.56 590.66 149.367V118.088H602.792V148.135C602.792 151.547 603.456 154.17 604.783 156.002C606.11 157.772 608.227 158.656 611.133 158.656C612.334 158.656 613.503 158.498 614.64 158.182C615.841 157.866 616.884 157.393 617.768 156.761C618.653 156.066 619.38 155.244 619.948 154.296C620.517 153.285 620.801 152.116 620.801 150.789V118.088H632.934V167.566H620.801V159.32ZM655.144 168.609C652.553 168.609 650.626 167.977 649.362 166.713C648.161 165.386 647.561 163.712 647.561 161.689V159.983C647.561 157.961 648.161 156.287 649.362 154.96C650.626 153.633 652.553 152.969 655.144 152.969C657.798 152.969 659.725 153.633 660.926 154.96C662.126 156.287 662.727 157.961 662.727 159.983V161.689C662.727 163.712 662.126 165.386 660.926 166.713C659.725 167.977 657.798 168.609 655.144 168.609ZM683.416 110.885C680.889 110.885 679.056 110.316 677.919 109.178C676.845 108.041 676.307 106.588 676.307 104.818V102.923C676.307 101.153 676.845 99.7 677.919 98.5625C679.056 97.4251 680.889 96.8564 683.416 96.8564C685.881 96.8564 687.682 97.4251 688.819 98.5625C689.957 99.7 690.525 101.153 690.525 102.923V104.818C690.525 106.588 689.957 108.041 688.819 109.178C687.682 110.316 685.881 110.885 683.416 110.885ZM677.35 118.088H689.483V167.566H677.35V118.088ZM704.629 167.566V118.088H716.761V126.335H717.235C718.246 123.681 719.826 121.469 721.975 119.7C724.186 117.867 727.219 116.951 731.074 116.951C736.192 116.951 740.11 118.625 742.827 121.974C745.545 125.324 746.903 130.094 746.903 136.287V167.566H734.771V137.519C734.771 133.981 734.139 131.327 732.875 129.557C731.611 127.788 729.526 126.903 726.619 126.903C725.355 126.903 724.123 127.093 722.922 127.472C721.785 127.788 720.742 128.293 719.795 128.989C718.91 129.62 718.183 130.442 717.614 131.453C717.046 132.401 716.761 133.538 716.761 134.865V167.566H704.629Z" fill="#0F62FE"/>
</svg>
