<svg width="33" height="33" viewBox="0 0 33 33" fill="none" xmlns="http://www.w3.org/2000/svg">
<path d="M16.8709 15.9598C17.4054 15.3427 17.7934 14.6718 18.035 13.947C18.2766 13.2222 18.3974 12.4291 18.3974 11.5676C18.3974 10.706 18.2766 9.9143 18.035 9.19239C17.7934 8.47046 17.4054 7.80095 16.8709 7.18386C18.2162 7.04539 19.3711 7.38855 20.3354 8.21333C21.2998 9.0381 21.782 10.1576 21.782 11.5718C21.782 12.9861 21.2998 14.1042 20.3354 14.9261C19.3711 15.748 18.2162 16.0926 16.8709 15.9598ZM23.8077 26.2436V23.5393C23.8077 22.6451 23.6057 21.8094 23.2017 21.0323C22.7977 20.2553 22.1194 19.6032 21.1667 19.0761C23.512 19.4585 25.2214 20.0114 26.2949 20.7351C27.3684 21.4587 27.9051 22.3935 27.9051 23.5393V26.2436H23.8077ZM26.7051 17.3513V14.3598H23.7136V12.6847H26.7051V9.69323H28.3803V12.6847H31.3717V14.3598H28.3803V17.3513H26.7051ZM11.547 16.0761C10.2609 16.0761 9.18934 15.6462 8.33243 14.7864C7.47554 13.9267 7.0471 12.8537 7.0471 11.5676C7.0471 10.2814 7.47554 9.20987 8.33243 8.35296C9.18934 7.49607 10.2609 7.06763 11.547 7.06763C12.8332 7.06763 13.9062 7.49607 14.7659 8.35296C15.6257 9.20987 16.0555 10.2814 16.0555 11.5676C16.0555 12.8537 15.6257 13.9267 14.7659 14.7864C13.9062 15.6462 12.8332 16.0761 11.547 16.0761ZM1.6283 26.2436V23.5684C1.6283 22.9063 1.8102 22.297 2.174 21.7406C2.53782 21.1842 3.02827 20.761 3.64536 20.471C5.07156 19.8214 6.4153 19.3419 7.67656 19.0325C8.93781 18.7231 10.228 18.5684 11.547 18.5684C12.8661 18.5684 14.1526 18.7231 15.4064 19.0325C16.6603 19.3419 18.0031 19.8214 19.435 20.471C20.0464 20.761 20.5377 21.1842 20.909 21.7406C21.2802 22.297 21.4658 22.9063 21.4658 23.5684V26.2436H1.6283ZM11.5513 14.4009C12.3507 14.4009 13.0221 14.1292 13.5654 13.586C14.1087 13.0426 14.3804 12.3713 14.3804 11.5718C14.3804 10.7724 14.1087 10.101 13.5654 9.55773C13.0221 9.01444 12.3493 8.74279 11.547 8.74279C10.7448 8.74279 10.0734 9.01444 9.53293 9.55773C8.99249 10.101 8.72226 10.7724 8.72226 11.5718C8.72226 12.3713 8.99233 13.0426 9.53246 13.586C10.0726 14.1292 10.7455 14.4009 11.5513 14.4009ZM3.30346 24.5684H19.7906V23.5684C19.7906 23.248 19.6996 22.9455 19.5176 22.661C19.3355 22.3765 19.0653 22.145 18.7069 21.9667C17.3986 21.3439 16.1851 20.901 15.0664 20.638C13.9477 20.3751 12.7746 20.2436 11.547 20.2436C10.3195 20.2436 9.14861 20.3751 8.0345 20.638C6.92036 20.901 5.70005 21.3439 4.37356 21.9667C4.03339 22.1359 3.76998 22.3648 3.58336 22.6534C3.39674 22.942 3.30343 23.247 3.30343 23.5684L3.30346 24.5684Z" fill="white"/>
</svg>
