<svg width="40" height="40" viewBox="0 0 40 40" fill="none" xmlns="http://www.w3.org/2000/svg">
<path d="M20.4637 19.3247C21.1318 18.5534 21.6168 17.7147 21.9188 16.8087C22.2208 15.9028 22.3718 14.9113 22.3718 13.8344C22.3718 12.7575 22.2208 11.7678 21.9188 10.8654C21.6168 9.96301 21.1318 9.12613 20.4637 8.35476C22.1453 8.18168 23.5888 8.61062 24.7943 9.6416C25.9998 10.6726 26.6026 12.0719 26.6026 13.8397C26.6026 15.6075 25.9998 17.0051 24.7943 18.0326C23.5888 19.0599 22.1453 19.4907 20.4637 19.3247ZM29.1346 32.1794V28.7991C29.1346 27.6813 28.8821 26.6367 28.3772 25.6653C27.8722 24.694 27.0242 23.8789 25.8334 23.2201C28.765 23.698 30.9017 24.3892 32.2436 25.2938C33.5855 26.1984 34.2564 27.3668 34.2564 28.7991V32.1794H29.1346ZM32.7564 21.0641V17.3247H29.0171V15.2308H32.7564V11.4915H34.8504V15.2308H38.5897V17.3247H34.8504V21.0641H32.7564ZM13.8088 19.47C12.2011 19.47 10.8617 18.9327 9.79057 17.858C8.71946 16.7833 8.1839 15.4421 8.1839 13.8344C8.1839 12.2267 8.71946 10.8873 9.79057 9.81614C10.8617 8.74503 12.2011 8.20947 13.8088 8.20947C15.4165 8.20947 16.7577 8.74503 17.8324 9.81614C18.9071 10.8873 19.4444 12.2267 19.4444 13.8344C19.4444 15.4421 18.9071 16.7833 17.8324 17.858C16.7577 18.9327 15.4165 19.47 13.8088 19.47ZM1.4104 32.1794V28.8354C1.4104 28.0078 1.63778 27.2462 2.09253 26.5507C2.5473 25.8552 3.16037 25.3262 3.93173 24.9637C5.71448 24.1517 7.39415 23.5523 8.97073 23.1656C10.5473 22.7788 12.16 22.5855 13.8088 22.5855C15.4577 22.5855 17.0658 22.7788 18.6331 23.1656C20.2003 23.5523 21.8789 24.1517 23.6688 24.9637C24.4331 25.3262 25.0472 25.8552 25.5112 26.5507C25.9753 27.2462 26.2073 28.0078 26.2073 28.8354V32.1794H1.4104ZM13.8142 17.3761C14.8135 17.3761 15.6527 17.0365 16.3318 16.3574C17.0109 15.6783 17.3505 14.839 17.3505 13.8397C17.3505 12.8404 17.0109 12.0012 16.3318 11.3221C15.6527 10.643 14.8117 10.3034 13.8088 10.3034C12.806 10.3034 11.9668 10.643 11.2912 11.3221C10.6156 12.0012 10.2779 12.8404 10.2779 13.8397C10.2779 14.839 10.6154 15.6783 11.2906 16.3574C11.9658 17.0365 12.807 17.3761 13.8142 17.3761ZM3.50436 30.0854H24.1133V28.8354C24.1133 28.435 23.9995 28.0569 23.772 27.7012C23.5444 27.3455 23.2066 27.0562 22.7586 26.8333C21.1233 26.0548 19.6064 25.5012 18.2081 25.1725C16.8097 24.8438 15.3433 24.6794 13.8088 24.6794C12.2743 24.6794 10.8108 24.8438 9.41815 25.1725C8.02548 25.5012 6.50009 26.0548 4.84198 26.8333C4.41676 27.0448 4.08751 27.331 3.85423 27.6917C3.62096 28.0525 3.50432 28.4337 3.50432 28.8354L3.50436 30.0854Z" fill="black"/>
</svg>
