<svg width="33" height="33" viewBox="0 0 33 33" fill="none" xmlns="http://www.w3.org/2000/svg">
<g clip-path="url(#clip0_1285_10351)">
<path d="M31.5 24.5H27.5V20.5H25.5V24.5H21.5V26.5H25.5V30.5H27.5V26.5H31.5V24.5Z" fill="white"/>
<path d="M25.5 5.5H22.5V4.5C22.4985 3.97004 22.2873 3.46222 21.9125 3.08748C21.5378 2.71274 21.03 2.50153 20.5 2.5H12.5C11.97 2.50153 11.4622 2.71274 11.0875 3.08748C10.7127 3.46222 10.5015 3.97004 10.5 4.5V5.5H7.5C6.97004 5.50153 6.46222 5.71274 6.08748 6.08748C5.71274 6.46222 5.50153 6.97004 5.5 7.5V28.5C5.50153 29.03 5.71274 29.5378 6.08748 29.9125C6.46222 30.2873 6.97004 30.4985 7.5 30.5H17.5V28.5H7.5V7.5H10.5V10.5H22.5V7.5H25.5V16.5H27.5V7.5C27.4985 6.97004 27.2873 6.46222 26.9125 6.08748C26.5378 5.71274 26.03 5.50153 25.5 5.5ZM20.5 8.5H12.5V4.5H20.5V8.5Z" fill="white"/>
</g>
<defs>
<clipPath id="clip0_1285_10351">
<rect width="32" height="32" fill="white" transform="translate(0.5 0.5)"/>
</clipPath>
</defs>
</svg>
