<svg width="16" height="17" viewBox="0 0 16 17" fill="none" xmlns="http://www.w3.org/2000/svg">
<g clip-path="url(#clip0_970_6671)">
<rect width="16" height="16" transform="translate(0 0.32959)" fill="white" style="mix-blend-mode:multiply"/>
<path d="M8 15.8851C6.68145 15.8851 5.39252 15.4811 4.2962 14.7242C3.19987 13.9672 2.34539 12.8913 1.8408 11.6325C1.33622 10.3737 1.20419 8.98861 1.46143 7.6523C1.71866 6.31598 2.3536 5.0885 3.28595 4.12507C4.2183 3.16164 5.40619 2.50554 6.6994 2.23973C7.9926 1.97392 9.33305 2.11035 10.5512 2.63175C11.7694 3.15315 12.8106 4.03612 13.5431 5.16899C14.2757 6.30186 14.6667 7.63376 14.6667 8.99625C14.6667 10.8233 13.9643 12.5755 12.714 13.8674C11.4638 15.1593 9.76811 15.8851 8 15.8851ZM8 3.35989C6.92119 3.35989 5.86661 3.69046 4.96961 4.30979C4.07262 4.92912 3.3735 5.8094 2.96065 6.83931C2.54781 7.86922 2.4398 9.0025 2.65026 10.0959C2.86072 11.1892 3.38022 12.1935 4.14305 12.9818C4.90588 13.77 5.87779 14.3068 6.93587 14.5243C7.99395 14.7418 9.09067 14.6302 10.0874 14.2036C11.084 13.777 11.9359 13.0545 12.5353 12.1276C13.1346 11.2008 13.4545 10.111 13.4545 8.99625C13.4545 7.50139 12.8799 6.06776 11.8569 5.01074C10.834 3.95372 9.44663 3.35989 8 3.35989Z" fill="#525252"/>
<path d="M9.47022 11.4407L7.55556 9.20695V5.21851H8.62222V8.69051L10.2222 10.5634L9.47022 11.4407Z" fill="black"/>
<path d="M2.85549 0.998261L0.666931 3.19141L1.53208 4.05474L3.72063 1.8616L2.85549 0.998261Z" fill="black"/>
<path d="M13.1427 0.992804L12.2775 1.85614L14.4661 4.04929L15.3312 3.18595L13.1427 0.992804Z" fill="black"/>
</g>
<defs>
<clipPath id="clip0_970_6671">
<rect width="16" height="16" fill="white" transform="translate(0 0.32959)"/>
</clipPath>
</defs>
</svg>
