<svg width="25" height="25" viewBox="0 0 25 25" fill="none" xmlns="http://www.w3.org/2000/svg">
<g clip-path="url(#clip0_2_27)">
<path d="M22.4274 15.0727L20.3125 12.9577V10.1562C20.31 8.22027 19.5897 6.35399 18.291 4.91827C16.9922 3.48256 15.2073 2.5794 13.2812 2.38344V0.78125H11.7188V2.38344C9.79272 2.5794 8.00775 3.48256 6.70901 4.91827C5.41027 6.35399 4.69001 8.22027 4.6875 10.1562V12.9577L2.57258 15.0727C2.42608 15.2191 2.34377 15.4178 2.34375 15.625V17.9688C2.34375 18.176 2.42606 18.3747 2.57257 18.5212C2.71909 18.6677 2.9178 18.75 3.125 18.75H8.59375V19.3569C8.57681 20.348 8.92618 21.3104 9.57491 22.0599C10.2236 22.8093 11.1261 23.2931 12.1094 23.4184C12.6525 23.4723 13.2008 23.4119 13.7192 23.2411C14.2375 23.0704 14.7144 22.793 15.1191 22.4269C15.5238 22.0608 15.8474 21.614 16.0691 21.1153C16.2908 20.6166 16.4056 20.077 16.4062 19.5312V18.75H21.875C22.0822 18.75 22.2809 18.6677 22.4274 18.5212C22.5739 18.3747 22.6562 18.176 22.6562 17.9688V15.625C22.6562 15.4178 22.5739 15.2191 22.4274 15.0727ZM14.8438 19.5312C14.8438 20.1529 14.5968 20.749 14.1573 21.1885C13.7177 21.6281 13.1216 21.875 12.5 21.875C11.8784 21.875 11.2823 21.6281 10.8427 21.1885C10.4032 20.749 10.1562 20.1529 10.1562 19.5312V18.75H14.8438V19.5312ZM21.0938 17.1875H3.90625V15.9485L6.02109 13.8336C6.16762 13.6871 6.24996 13.4884 6.25 13.2812V10.1562C6.25 8.49865 6.90848 6.90894 8.08058 5.73683C9.25268 4.56473 10.8424 3.90625 12.5 3.90625C14.1576 3.90625 15.7473 4.56473 16.9194 5.73683C18.0915 6.90894 18.75 8.49865 18.75 10.1562V13.2812C18.75 13.4884 18.8324 13.6871 18.9789 13.8336L21.0938 15.9485V17.1875Z" fill="black"/>
<circle cx="17.9688" cy="4.6875" r="3.125" fill="#DA1E28"/>
</g>
<defs>
<clipPath id="clip0_2_27">
<rect width="25" height="25" fill="white"/>
</clipPath>
</defs>
</svg>
